<?xml version="1.0" encoding="UTF-8"?>
<svg version="1.1" xmlns="http://www.w3.org/2000/svg" width="600" height="600">
<path d="M0 0 C198 0 396 0 600 0 C600 198 600 396 600 600 C402 600 204 600 0 600 C0 402 0 204 0 0 Z " fill="#FEF100" transform="translate(0,0)"/>
<path d="M0 0 C1.5547669 3.10953379 1.28644437 5.56266761 1 9 C-1.44903019 13.80386692 -4.32843759 16.35955168 -9 19 C-9.66 19 -10.32 19 -11 19 C-11 19.66 -11 20.32 -11 21 C-9.98679688 21.34224609 -9.98679688 21.34224609 -8.953125 21.69140625 C-5.20300551 23.35316555 -2.07064658 25.55035469 1.25 27.9375 C1.88679687 28.38029297 2.52359375 28.82308594 3.1796875 29.27929688 C7.87760295 32.63280886 7.87760295 32.63280886 9 36 C8.2471875 36.12375 7.494375 36.2475 6.71875 36.375 C-9.18151977 39.46243102 -23.63677868 46.91846458 -33.3125 60.25 C-34.24378051 61.81274707 -35.13874057 63.39759743 -36 65 C-36.48597656 65.83917969 -36.97195312 66.67835938 -37.47265625 67.54296875 C-43.71244827 80.42231662 -43.4796372 99.07573891 -38.875 112.5 C-37.98057662 114.69382179 -37.02768985 116.86535699 -36 119 C-35.5771875 119.91394531 -35.154375 120.82789063 -34.71875 121.76953125 C-28.66617486 133.2236778 -18.1237469 139.92027216 -7.1875 146.08984375 C-4.60942336 147.63479409 -3.00837644 148.86836171 -1 151 C-1.56396484 151.30703857 -2.12792969 151.61407715 -2.70898438 151.93041992 C-5.30737327 153.34692492 -7.90369054 154.76718745 -10.5 156.1875 C-11.8303125 156.91163086 -11.8303125 156.91163086 -13.1875 157.65039062 C-18.02674395 160.30129999 -22.74543604 163.0315278 -27.33837891 166.09228516 C-29 167 -29 167 -31.875 167.1875 C-34.9270375 166.02772575 -37.41244242 164.62039075 -40.1953125 162.92578125 C-41.09523926 162.37962158 -41.99516602 161.83346191 -42.92236328 161.27075195 C-43.6079834 160.85140381 -44.29360352 160.43205566 -45 160 C-44.91959473 160.72251953 -44.83918945 161.44503906 -44.75634766 162.18945312 C-42.9200766 178.77614117 -41.28646618 195.36139608 -40 212 C-37.69 212.99 -35.38 213.98 -33 215 C-36.70719088 219.33016235 -41.41405483 221.74485919 -46.3125 224.5 C-47.14201172 224.97308594 -47.97152344 225.44617188 -48.82617188 225.93359375 C-50.46163903 226.86556477 -52.10181776 227.78932106 -53.74682617 228.7043457 C-55.95585004 229.93637848 -55.95585004 229.93637848 -57.79418945 231.22338867 C-62.96279936 234.66938336 -67.5871694 234.50172581 -73.5625 234.3125 C-74.48224609 234.30283203 -75.40199219 234.29316406 -76.34960938 234.28320312 C-80.99328959 234.20642049 -85.43471651 233.93432591 -90 233 C-88.46820984 228.89369506 -85.9011315 227.28429193 -82.375 224.8125 C-71.4621246 216.83674707 -62.58300535 206.36653474 -54 196 C-54.8554541 196.48903809 -55.7109082 196.97807617 -56.59228516 197.48193359 C-62.60906059 200.92106027 -68.62691189 204.35825628 -74.6484375 207.7890625 C-75.74462402 208.41433838 -76.84081055 209.03961426 -77.97021484 209.68383789 C-80.31066618 211.01819388 -82.65212862 212.35065263 -84.99462891 213.68139648 C-91.02078353 217.11124765 -97.00874088 220.58750287 -102.9375 224.18359375 C-104.02369629 224.8369873 -105.10989258 225.49038086 -106.22900391 226.16357422 C-108.281493 227.40245829 -110.32592217 228.65482421 -112.36083984 229.92236328 C-113.28074707 230.47520996 -114.2006543 231.02805664 -115.1484375 231.59765625 C-116.34218994 232.33254272 -116.34218994 232.33254272 -117.56005859 233.08227539 C-120.74967315 234.28197132 -122.73578315 233.83965564 -126 233 C-128.7734375 231.58984375 -128.7734375 231.58984375 -131.375 229.9375 C-132.68597656 229.11572266 -132.68597656 229.11572266 -134.0234375 228.27734375 C-134.67570312 227.85582031 -135.32796875 227.43429687 -136 227 C-134.30343574 223.26127505 -132.38732271 221.3711259 -129 219 C-128.34 219 -127.68 219 -127 219 C-127 218.34 -127 217.68 -127 217 C-125.05078125 215.40625 -125.05078125 215.40625 -122.3125 213.5 C-121.3121875 212.7884375 -120.311875 212.076875 -119.28125 211.34375 C-118.47880859 210.77333984 -118.47880859 210.77333984 -117.66015625 210.19140625 C-106.49913975 202.18173558 -96.92186163 193.46442649 -88 183 C-86.875 181.6875 -85.75 180.375 -84.625 179.0625 C-84.14289063 178.49660156 -83.66078125 177.93070313 -83.1640625 177.34765625 C-82.46835252 176.5422202 -81.75257544 175.75257544 -81 175 C-82.10859375 175.66128906 -83.2171875 176.32257813 -84.359375 177.00390625 C-85.822539 177.85741859 -87.28610166 178.71024777 -88.75 179.5625 C-89.47960937 180.00013672 -90.20921875 180.43777344 -90.9609375 180.88867188 C-91.66992188 181.29794922 -92.37890625 181.70722656 -93.109375 182.12890625 C-94.08342285 182.70233765 -94.08342285 182.70233765 -95.07714844 183.28735352 C-97.54555023 184.20219161 -98.59149689 184.0370985 -101 183 C-103.5874909 180.51922933 -105.64999826 177.60346467 -107.8125 174.75 C-108.42287109 173.98558594 -109.03324219 173.22117187 -109.66210938 172.43359375 C-110.5196582 171.31404297 -110.5196582 171.31404297 -111.39453125 170.171875 C-111.91893799 169.4922168 -112.44334473 168.81255859 -112.98364258 168.11230469 C-114.33078398 165.31252871 -113.9724381 163.90726785 -113 161 C-110.75 158.39453125 -110.75 158.39453125 -108 155.8125 C-104.55497294 152.74012047 -104.55497294 152.74012047 -102 149 C-102.65145996 149.37584229 -103.30291992 149.75168457 -103.97412109 150.13891602 C-105.95743138 151.28313349 -107.94074919 152.42733791 -109.92407227 153.5715332 C-112.25273964 154.91502683 -114.5813607 156.25860035 -116.90991211 157.60229492 C-122.91129918 161.0652474 -128.91352544 164.52672393 -134.91796875 167.984375 C-137.1328326 169.26038178 -139.34767671 170.53642281 -141.5625 171.8125 C-142.63870605 172.43205566 -143.71491211 173.05161133 -144.82373047 173.68994141 C-149.67818461 176.48872466 -154.52359315 179.29995274 -159.33984375 182.1640625 C-160.13640381 182.63739014 -160.93296387 183.11071777 -161.75366211 183.59838867 C-163.2061394 184.4642552 -164.65634118 185.33395536 -166.10375977 186.20825195 C-170.78197057 189 -170.78197057 189 -173 189 C-174.22856207 186.92642695 -175.43225346 184.84403246 -176.625 182.75 C-177.1509375 181.87021484 -177.1509375 181.87021484 -177.6875 180.97265625 C-178.6640625 179.234375 -178.6640625 179.234375 -180 176 C-178.91341039 172.91486823 -177.45605115 171.29119906 -174.83203125 169.40625 C-174.19297852 168.93888428 -173.55392578 168.47151855 -172.89550781 167.98999023 C-171.86441895 167.25244507 -171.86441895 167.25244507 -170.8125 166.5 C-169.36431971 165.44093975 -167.9177457 164.37968009 -166.47265625 163.31640625 C-165.73289551 162.77258301 -164.99313477 162.22875977 -164.23095703 161.66845703 C-160.02802834 158.52522933 -155.95592532 155.21992671 -151.87426758 151.921875 C-143.30607676 145 -143.30607676 145 -141 145 C-141 144.34 -141 143.68 -141 143 C-139.37336693 141.27170236 -137.71574311 139.63700127 -136 138 C-126.82613963 129.07892024 -126.82613963 129.07892024 -119 119 C-119.91523438 119.5775 -120.83046875 120.155 -121.7734375 120.75 C-122.97381205 121.5002341 -124.17434092 122.25022133 -125.375 123 C-125.97828125 123.3815625 -126.5815625 123.763125 -127.203125 124.15625 C-131.7734375 127 -131.7734375 127 -134 127 C-135.01381752 123.79586926 -136.0085308 120.5861097 -137 117.375 C-137.28617188 116.47136719 -137.57234375 115.56773437 -137.8671875 114.63671875 C-140.79158454 105.09761411 -140.79158454 105.09761411 -140 101 C-138.41779795 98.60373425 -136.52974899 96.64620628 -134.5 94.625 C-133.51786828 93.62257247 -132.53681729 92.61908536 -131.55664062 91.61474609 C-130.71294922 90.75187988 -129.86925781 89.88901367 -129 89 C-129.85037842 89.4861377 -130.70075684 89.97227539 -131.5769043 90.47314453 C-137.68083001 93.9620893 -143.78595868 97.44888393 -149.89453125 100.9296875 C-151.61473223 101.91056181 -153.33493254 102.89143731 -155.05499268 103.87255859 C-156.24805827 104.55305553 -157.4412174 105.2333885 -158.63446045 105.91357422 C-166.87328308 110.61165338 -175.08804166 115.34618223 -183.20239258 120.25732422 C-187.78609996 123 -187.78609996 123 -190 123 C-190.05460198 121.1253321 -190.09306244 119.25019095 -190.125 117.375 C-190.14820313 116.33085937 -190.17140625 115.28671875 -190.1953125 114.2109375 C-189.87435051 108.93432237 -189.11376451 106.05007645 -185.19921875 102.359375 C-184.03924101 101.47550275 -182.8679452 100.60634551 -181.6875 99.75 C-181.06520508 99.27965332 -180.44291016 98.80930664 -179.80175781 98.32470703 C-177.87645027 96.87123131 -175.93867254 95.43557737 -174 94 C-171.74249591 92.30141978 -169.49389317 90.5915126 -167.25 88.875 C-166.71511963 88.46628662 -166.18023926 88.05757324 -165.62915039 87.63647461 C-155.74182419 80.01110389 -146.8501398 71.38022448 -138.7109375 61.93359375 C-136.25809972 59.16155106 -133.64889006 56.58428299 -131 54 C-139.13775189 58.61698126 -147.23306448 63.29818027 -155.29052734 68.05371094 C-163.82970164 73.08859231 -172.4147688 78.04419342 -181 83 C-181.33 82.34 -181.66 81.68 -182 81 C-170.23444386 50.04916763 -145.68527935 27.59808051 -116.02880859 13.89599609 C-89.16345441 2.03127289 -59.65925682 2.31639907 -32.015625 11.23046875 C-26.28332184 12.69324559 -23.25019181 12.3546826 -18.14453125 9.375 C-16.35893775 8.26314045 -14.58176675 7.1376603 -12.8125 6 C-11.03100305 4.86921423 -9.24599525 3.74393504 -7.45703125 2.625 C-6.67303955 2.12226563 -5.88904785 1.61953125 -5.08129883 1.1015625 C-3 0 -3 0 0 0 Z " fill="#F9AE18" transform="translate(249,177)"/>
<path d="M0 0 C0.76475647 0.00582092 1.52951294 0.01164185 2.31744385 0.01763916 C30.08823747 0.23174637 30.08823747 0.23174637 41.8125 5.4375 C43.01764375 14.77736409 42.90463655 24.03957216 42.8125 33.4375 C40.9871875 32.81875 40.9871875 32.81875 39.125 32.1875 C33.0546057 30.16403523 26.94606319 28.26032601 20.8125 26.4375 C20.173125 26.23898438 19.53375 26.04046875 18.875 25.8359375 C10.26971869 24.17355361 0.77425799 24.7367255 -7.1875 28.4375 C-7.90164063 28.75976562 -8.61578125 29.08203125 -9.3515625 29.4140625 C-11.6924433 30.71897903 -12.19446794 31.99311338 -13.1875 34.4375 C-13.6825 35.4275 -13.6825 35.4275 -14.1875 36.4375 C-14.56977938 40.41320557 -14.48709782 42.83830437 -12.6875 46.4375 C-3.86674561 57.02240527 8.44226038 63.28784845 20.609375 69.359375 C37.17024278 77.63442149 51.55053788 86.08902507 58.1875 104.375 C62.24494171 118.74510604 60.50482753 133.28285322 53.625 146.4140625 C45.28074016 160.33315111 31.78570966 167.85193954 16.48046875 172.08203125 C-4.25159895 177.12889186 -26.12749103 174.84770777 -46.13769531 168.09228516 C-48.10759612 167.46302432 -50.0767941 166.96658495 -52.0859375 166.48046875 C-56.01271467 165.25389266 -58.28310451 164.37458162 -61.1875 161.4375 C-63.42811216 155.06733575 -63.24764458 148.11221129 -63.1875 141.4375 C-63.19093449 139.89322805 -63.19479878 138.34895695 -63.19921875 136.8046875 C-63.19535156 135.69351563 -63.19148437 134.58234375 -63.1875 133.4375 C-58.87392434 134.80173326 -54.80992749 136.45355489 -50.6875 138.3125 C-38.45870487 143.68810195 -26.24237857 146.60809577 -12.875 146.75 C-11.97587891 146.77900391 -11.07675781 146.80800781 -10.15039062 146.83789062 C-2.24001812 146.91224698 3.75930334 145.04543881 9.8125 139.875 C13.09630263 135.87286555 13.30033724 132.06551309 13.19140625 127.0546875 C12.32967803 121.10254411 8.7398161 117.93370592 4.140625 114.36328125 C-4.30089637 108.62922344 -13.39864061 104.29497948 -22.55200195 99.82275391 C-29.7167123 96.28326549 -36.05356366 92.59798181 -42.1875 87.4375 C-42.83074219 86.9528125 -43.47398437 86.468125 -44.13671875 85.96875 C-53.69806852 78.50218619 -60.35201023 66.386913 -62.1875 54.4375 C-63.22840515 40.64550673 -60.10197987 29.17327643 -51.51171875 18.3203125 C-37.97870916 3.42530837 -19.17875543 -0.30783603 0 0 Z " fill="#0272BA" transform="translate(278.1875,220.5625)"/>
<path d="M0 0 C0.89874816 0.00092179 1.79749632 0.00184359 2.72347927 0.00279331 C3.75138073 0.00141865 4.77928219 0.00004398 5.83833218 -0.00137234 C6.975527 0.00222294 8.11272182 0.00581821 9.2843771 0.00952244 C10.47445873 0.00937641 11.66454037 0.00923038 12.89068508 0.00907993 C16.16326569 0.00965889 19.43580402 0.01468801 22.70837617 0.02165389 C26.1250196 0.02788815 29.54166379 0.02849128 32.95831203 0.0296793 C39.43232563 0.0327924 45.90632242 0.0410055 52.3803286 0.05102879 C59.74901216 0.06219058 67.11769651 0.06770054 74.48638642 0.07272422 C89.64814464 0.08318813 104.80988712 0.10078717 119.97163296 0.12304783 C119.05135341 7.68686312 117.62491552 15.04387728 116.03413296 22.49804783 C115.76923061 23.78066502 115.50432827 25.0632822 115.23139858 26.38476658 C114.97165249 27.60550877 114.71190639 28.82625095 114.44428921 30.08398533 C114.09249599 31.75146824 114.09249599 31.75146824 113.73359585 33.45263767 C112.97163296 36.12304783 112.97163296 36.12304783 110.97163296 38.12304783 C110.02288296 37.35992283 109.07413296 36.59679783 108.09663296 35.81054783 C100.97651061 30.82363674 93.60072316 29.95826406 85.12007046 29.54492283 C84.33462856 29.50286716 83.54918667 29.4608115 82.7399435 29.41748142 C80.81739212 29.31514028 78.89453803 29.21851309 76.97163296 29.12304783 C77.05566943 44.7441394 77.15085265 60.36512118 77.25916004 75.9860611 C77.30919616 83.23979127 77.35563978 90.49351066 77.39350796 97.74731541 C77.42653856 104.07269195 77.46643016 110.39798245 77.51442301 116.7232638 C77.53957863 120.06977986 77.56036776 123.41618193 77.57497692 126.76277065 C77.59190314 130.50660427 77.62095437 134.25016492 77.6527853 137.99389744 C77.65494549 139.09297932 77.65710567 140.1920612 77.65933132 141.32444859 C77.74264874 149.01535703 77.94608378 157.00630064 82.53413296 163.49804783 C84.14657411 165.82340807 85.05971393 167.38729075 85.97163296 170.12304783 C64.52163296 170.12304783 43.07163296 170.12304783 20.97163296 170.12304783 C20.97163296 169.46304783 20.97163296 168.80304783 20.97163296 168.12304783 C21.63163296 168.12304783 22.29163296 168.12304783 22.97163296 168.12304783 C27.57264469 159.01368582 29.56319062 151.79610799 29.51753139 141.51318455 C29.52786907 140.29252796 29.53820675 139.07187138 29.54885769 137.8142252 C29.57313552 134.49853599 29.58012737 131.18368982 29.5791378 127.8679719 C29.58228613 124.39123774 29.60794383 120.9146677 29.63111782 117.43801975 C29.67153548 110.86869291 29.69198482 104.29946497 29.70509171 97.73003304 C29.72101029 90.24497019 29.75944607 82.7600745 29.799685 75.27510905 C29.88188886 59.89113846 29.9361025 44.50720136 29.97163296 29.12304783 C27.40434784 29.26905952 24.83738637 29.41894037 22.27046108 29.57104588 C21.54739773 29.61176968 20.82433437 29.65249348 20.07936001 29.69445133 C14.99723289 29.99972308 10.38537868 30.64001193 5.47163296 31.93554783 C4.48139126 32.19513279 4.48139126 32.19513279 3.47114468 32.45996189 C-1.41305407 33.79958645 -5.6259887 35.65771595 -10.02836704 38.12304783 C-10.68836704 38.12304783 -11.34836704 38.12304783 -12.02836704 38.12304783 C-11.38269632 30.21358153 -9.16278537 22.73271315 -7.02836704 15.12304783 C-6.6558271 13.77412929 -6.28342986 12.42517133 -5.91117954 11.07617283 C-2.86293025 0.17367535 -2.86293025 0.17367535 0 0 Z " fill="#0273BA" transform="translate(343.0283670425415,222.87695217132568)"/>
<path d="M0 0 C21.78 0 43.56 0 66 0 C63.69 3.63 61.38 7.26 59 11 C56.35154561 17.33642492 56.71114281 23.86131143 56.7253418 30.62963867 C56.72023087 31.88910309 56.71511993 33.1485675 56.70985413 34.44619751 C56.6965151 37.88659144 56.69588009 41.32687515 56.69841743 44.76728988 C56.69949131 47.64949965 56.69459276 50.53168751 56.689812 53.41389257 C56.67873291 60.22199014 56.6782694 67.03003255 56.68432617 73.83813477 C56.69035551 80.83463531 56.67807786 87.83093423 56.6567561 94.82740039 C56.63906804 100.85571761 56.63315032 106.8839711 56.63639385 112.91231328 C56.63819653 116.50310807 56.63567368 120.09375924 56.62167931 123.68453026 C56.60662365 127.69761334 56.61613361 131.7102939 56.62768555 135.72338867 C56.61621994 137.47959785 56.61621994 137.47959785 56.60452271 139.27128601 C56.67904112 151.04915355 58.68987769 158.9038043 65 169 C43.88 169 22.76 169 1 169 C2.5818588 165.8362824 4.25130645 162.88183743 6.09765625 159.87890625 C8.03780264 155.83903432 8.12832789 151.6355939 8.14717102 147.22027588 C8.15432632 146.06525574 8.16148163 144.9102356 8.16885376 143.72021484 C8.17288712 141.83278564 8.17288712 141.83278564 8.17700195 139.90722656 C8.18327219 138.56150133 8.18991948 137.21577781 8.19691467 135.87005615 C8.21788945 131.46025788 8.22831033 127.05045952 8.23828125 122.640625 C8.24233115 121.118731 8.24644814 119.59683718 8.25063133 118.07494354 C8.26966791 110.92394097 8.2839026 103.77294862 8.2922433 96.62192559 C8.30201273 88.38345067 8.32833083 80.14524462 8.36874419 71.9068644 C8.39895631 65.52790488 8.41371696 59.14902224 8.41702431 52.76999259 C8.4193688 48.96513395 8.42825052 45.16056307 8.45348549 41.35578156 C8.47686124 37.77368196 8.48096182 34.19205769 8.47072411 30.60990143 C8.46999714 28.68052584 8.48902076 26.75117387 8.50878906 24.82189941 C8.46573347 17.59018288 7.53917052 12.31698533 4 6 C3.32900733 4.66883845 2.6611093 3.33609757 2 2 C1.34 2 0.68 2 0 2 C0 1.34 0 0.68 0 0 Z " fill="#0272BB" transform="translate(474,223)"/>
<path d="M0 0 C0.32572998 0.58152832 0.65145996 1.16305664 0.98706055 1.76220703 C9.13495719 16.28999345 17.46626375 30.69549082 26 45 C23.06060409 48.18826825 20.10874233 50.28916645 16.34375 52.42578125 C15.23773438 53.05806641 14.13171875 53.69035156 12.9921875 54.34179688 C11.82824865 54.99891698 10.66418572 55.65581735 9.5 56.3125 C7.23942756 57.59998695 4.97901016 58.88774616 2.71875 60.17578125 C1.60886719 60.80436035 0.49898437 61.43293945 -0.64453125 62.08056641 C-2.92437094 63.38470637 -5.19172091 64.69915624 -7.44921875 66.04052734 C-9.06763672 67.00079834 -9.06763672 67.00079834 -10.71875 67.98046875 C-12.1718457 68.85094849 -12.1718457 68.85094849 -13.65429688 69.73901367 C-16 71 -16 71 -18 71 C-19.06092734 69.09392715 -20.09820101 67.17467254 -21.125 65.25 C-21.70507812 64.18265625 -22.28515625 63.1153125 -22.8828125 62.015625 C-24 59 -24 59 -23.46875 56.93359375 C-21.5637911 54.42573563 -19.5207292 52.11830741 -17.375 49.8125 C-14.52309629 47.26006294 -14.52309629 47.26006294 -13 44 C-13.84304687 44.5053125 -14.68609375 45.010625 -15.5546875 45.53125 C-17.19824219 46.50578125 -17.19824219 46.50578125 -18.875 47.5 C-20.51082031 48.47453125 -20.51082031 48.47453125 -22.1796875 49.46875 C-25 51 -25 51 -27 51 C-28.01381752 47.79586926 -29.0085308 44.5861097 -30 41.375 C-30.28617187 40.47136719 -30.57234375 39.56773437 -30.8671875 38.63671875 C-33.80644467 29.04914178 -33.80644467 29.04914178 -33 25 C-31.32101132 22.28286397 -29.27088222 20.04748718 -27.0625 17.75 C-26.44729492 17.09829834 -25.83208984 16.44659668 -25.19824219 15.77514648 C-19.55333387 10.06625129 -8.50396596 0 0 0 Z " fill="#0372BA" transform="translate(142,253)"/>
<path d="M0 0 C1.27999088 1.88645235 2.46028483 3.8406873 3.59765625 5.81640625 C3.94832153 6.42039246 4.29898682 7.02437866 4.66027832 7.64666748 C5.80112733 9.61478002 6.93173229 11.58858124 8.0625 13.5625 C8.83568316 14.89980943 9.60968942 16.23664331 10.38452148 17.57299805 C11.53350604 19.55497707 12.68194214 21.53724983 13.82752991 23.52119446 C16.69141868 28.48066729 19.60176491 33.41013478 22.5625 38.3125 C23.10692749 39.21560913 23.10692749 39.21560913 23.66235352 40.13696289 C24.44012201 41.42551645 25.21976179 42.71294039 26 44 C22.62905623 46.80465886 19.2343234 49.15770275 15.4375 51.34765625 C14.39335937 51.95287109 13.34921875 52.55808594 12.2734375 53.18164062 C10.65308594 54.11266602 10.65308594 54.11266602 9 55.0625 C6.85406028 56.30320143 4.70822326 57.54408051 2.5625 58.78515625 C1.61503906 59.33051025 0.66757813 59.87586426 -0.30859375 60.43774414 C-2.12364303 61.49130912 -3.91934353 62.57883667 -5.6953125 63.69702148 C-8 65 -8 65 -10.4375 65.0625 C-14.00539761 63.58312782 -16.9387523 61.30884499 -19 58 C-18.8189225 54.23509695 -16.77617205 52.48608075 -14.125 50 C-11.45334288 47.47622058 -9.12962956 45.00023284 -7 42 C-8.10859375 42.66128906 -9.2171875 43.32257813 -10.359375 44.00390625 C-11.822539 44.85741859 -13.28610166 45.71024777 -14.75 46.5625 C-15.47960937 47.00013672 -16.20921875 47.43777344 -16.9609375 47.88867188 C-18.02441406 48.50258789 -18.02441406 48.50258789 -19.109375 49.12890625 C-19.75874023 49.51119385 -20.40810547 49.89348145 -21.07714844 50.28735352 C-23.54555023 51.20219161 -24.59149689 51.0370985 -27 50 C-29.5874909 47.51922933 -31.64999826 44.60346467 -33.8125 41.75 C-34.42287109 40.98558594 -35.03324219 40.22117187 -35.66210938 39.43359375 C-36.23380859 38.68722656 -36.80550781 37.94085938 -37.39453125 37.171875 C-37.91893799 36.4922168 -38.44334473 35.81255859 -38.98364258 35.11230469 C-40.33215394 32.30968151 -39.97642547 30.91010767 -39 28 C-37.29478238 26.00867204 -35.65366005 24.27442986 -33.75 22.5 C-33.27175781 22.03980469 -32.79351562 21.57960938 -32.30078125 21.10546875 C-30.8725292 19.73140512 -29.43629334 18.36565596 -28 17 C-27.27683594 16.19175781 -26.55367187 15.38351562 -25.80859375 14.55078125 C-21.73125088 10.84771464 -17.10618148 8.36221177 -12.3125 5.6875 C-11.35021484 5.13771484 -10.38792969 4.58792969 -9.39648438 4.02148438 C-2.27770769 0 -2.27770769 0 0 0 Z " fill="#0372BA" transform="translate(175,310)"/>
<path d="M0 0 C5.11558614 3.55179721 9.4628013 7.91439093 13.90966797 12.25244141 C15.118326 13.39863036 16.39437799 14.47346663 17.6875 15.5234375 C19.59800045 17.21634109 20.57553539 18.2442391 21.40234375 20.66796875 C21.0643808 24.19111674 20.26478067 27.36721287 19.2890625 30.76953125 C18.58282354 33.87449371 18.32800797 35.75903817 18.484375 38.81640625 C18.96956582 48.94032686 18.96956582 48.94032686 16.05712891 52.15087891 C12.45608219 54.94616941 8.44713313 56.87146062 4.31445312 58.75390625 C1.6287471 60.03777797 -0.8021886 61.65748108 -3.28515625 63.29296875 C-7.01350664 65.72702133 -7.01350664 65.72702133 -9.56591797 65.46899414 C-12.25002952 64.41076655 -12.78906868 63.26657422 -14.15625 60.75 C-14.61870117 59.91766846 -15.08115234 59.08533691 -15.55761719 58.2277832 C-16.04520508 57.32116943 -16.53279297 56.41455566 -17.03515625 55.48046875 C-18.08922736 53.57315725 -19.14528788 51.66694412 -20.203125 49.76171875 C-20.75274902 48.7665625 -21.30237305 47.77140625 -21.86865234 46.74609375 C-25.30873866 40.62174917 -28.95543471 34.61696366 -32.58374023 28.6027832 C-33.10911377 27.72323975 -33.6344873 26.84369629 -34.17578125 25.9375 C-34.87815918 24.77118042 -34.87815918 24.77118042 -35.59472656 23.58129883 C-36.59765625 21.66796875 -36.59765625 21.66796875 -36.59765625 19.66796875 C-35.47907227 19.02565308 -35.47907227 19.02565308 -34.33789062 18.37036133 C-31.53413751 16.75942155 -28.73117276 15.14712051 -25.92871094 13.53393555 C-24.7226381 12.84004164 -23.5162652 12.146669 -22.30957031 11.45385742 C-21.13741444 10.78079113 -19.96569744 10.10695992 -18.79443359 9.43234253 C-17.08953276 8.45081416 -15.3826693 7.47269739 -13.67578125 6.49462891 C-11.05463342 4.93915396 -8.56997054 3.28824106 -6.06640625 1.5546875 C-2.59765625 -0.33203125 -2.59765625 -0.33203125 0 0 Z " fill="#0272BB" transform="translate(188.59765625,226.33203125)"/>
<path d="M0 0 C0.4125 0.90621094 0.825 1.81242187 1.25 2.74609375 C9.33915276 20.03005948 21.76062239 28.652277 38 38 C32.99832341 41.87957155 27.55267066 45.01017756 22.125 48.25 C21.04863281 48.91257812 19.97226563 49.57515625 18.86328125 50.2578125 C17.81785156 50.87914062 16.77242187 51.50046875 15.6953125 52.140625 C14.74672363 52.71329102 13.79813477 53.28595703 12.82080078 53.87597656 C9.39285047 55.24193495 7.52464777 54.94157257 4 54 C-7.60246582 48.67974918 -13.04407318 36.51158664 -18.9375 25.875 C-19.52595703 24.823125 -20.11441406 23.77125 -20.72070312 22.6875 C-22.15191238 20.12761353 -23.57823608 17.5651405 -25 15 C-22.70478205 12.50608189 -20.30164332 10.82645903 -17.40234375 9.08203125 C-16.51869141 8.55029297 -15.63503906 8.01855469 -14.72460938 7.47070312 C-13.80486328 6.92349609 -12.88511719 6.37628906 -11.9375 5.8125 C-11.01388672 5.25369141 -10.09027344 4.69488281 -9.13867188 4.11914062 C-8.25630859 3.59126953 -7.37394531 3.06339844 -6.46484375 2.51953125 C-5.656521 2.03589111 -4.84819824 1.55225098 -4.01538086 1.05395508 C-2 0 -2 0 0 0 Z " fill="#0372BA" transform="translate(210,289)"/>
<path d="M0 0 C2.84576335 1.03427318 5.55534245 2.13784997 8.3125 3.375 C9.1154248 3.73207031 9.91834961 4.08914063 10.74560547 4.45703125 C18.1252263 7.85239112 24.54990142 12.07695656 31 17 C29.74836205 20.98886486 28.2841479 24.65718567 26.375 28.375 C25.70597656 29.68597656 25.70597656 29.68597656 25.0234375 31.0234375 C24.68570313 31.67570312 24.34796875 32.32796875 24 33 C8.87884312 33.61440367 -4.05597109 29.80370609 -17.8125 24 C-18.64458984 23.65710938 -19.47667969 23.31421875 -20.33398438 22.9609375 C-21.13771484 22.62320312 -21.94144531 22.28546875 -22.76953125 21.9375 C-23.48729736 21.63714844 -24.20506348 21.33679688 -24.94458008 21.02734375 C-27.18349828 19.90828355 -29.04360787 18.55432589 -31 17 C-30.49855469 16.76667969 -29.99710938 16.53335937 -29.48046875 16.29296875 C-20.65069764 12.03602629 -12.25972599 7.0029195 -3.8125 2.04394531 C-2.5629921 1.32426646 -1.28971551 0.64485776 0 0 Z " fill="#F8AF18" transform="translate(248,327)"/>
<path d="M0 0 C0.66 7.59 1.32 15.18 2 23 C4.31 23.99 6.62 24.98 9 26 C5.29280912 30.33016235 0.58594517 32.74485919 -4.3125 35.5 C-5.14201172 35.97308594 -5.97152344 36.44617188 -6.82617188 36.93359375 C-8.46163903 37.86556477 -10.10181776 38.78932106 -11.74682617 39.7043457 C-13.95585004 40.93637848 -13.95585004 40.93637848 -15.79418945 42.22338867 C-20.96279936 45.66938336 -25.5871694 45.50172581 -31.5625 45.3125 C-32.48224609 45.30283203 -33.40199219 45.29316406 -34.34960938 45.28320312 C-38.99328959 45.20642049 -43.43471651 44.93432591 -48 44 C-46.46820984 39.89369506 -43.9011315 38.28429193 -40.375 35.8125 C-29.67460932 27.98097741 -21.0130766 17.72557803 -12.4375 7.6875 C-9.23341975 4.02163435 -5.17851563 0 0 0 Z " fill="#F5AE1B" transform="translate(207,366)"/>
<path d="M0 0 C2.559983 1.32649988 5.01760667 2.77045026 7.47265625 4.28125 C2.12521815 8.72761223 -3.71344686 12.05135929 -9.71484375 15.53125 C-10.82021484 16.1809375 -11.92558594 16.830625 -13.06445312 17.5 C-14.11826172 18.11359375 -15.17207031 18.7271875 -16.2578125 19.359375 C-17.22098389 19.92043945 -18.18415527 20.48150391 -19.17651367 21.05957031 C-21.52734375 22.28125 -21.52734375 22.28125 -23.52734375 22.28125 C-25.13134766 20.01806641 -25.13134766 20.01806641 -27.00390625 16.8828125 C-27.67421875 15.76390625 -28.34453125 14.645 -29.03515625 13.4921875 C-29.55577637 12.60998535 -29.55577637 12.60998535 -30.08691406 11.70996094 C-31.14672274 9.91576605 -32.21882472 8.12939127 -33.29296875 6.34375 C-38.52734375 -2.44757481 -38.52734375 -2.44757481 -38.52734375 -4.71875 C-26.15719737 -10.4368103 -11.58721071 -5.45280504 0 0 Z " fill="#0673B9" transform="translate(168.52734375,213.71875)"/>
<path d="M0 0 C1.90234375 2.23046875 1.90234375 2.23046875 3.9375 5.1875 C5.97489821 8.11994019 7.98382263 10.98034603 10.25390625 13.73828125 C12 16 12 16 12 18 C11.25838623 18.41362793 10.51677246 18.82725586 9.75268555 19.25341797 C6.99578642 20.79182082 4.23950783 22.331328 1.48364258 23.87158203 C0.29183222 24.53738882 -0.9002229 25.20275769 -2.0925293 25.86767578 C-3.80842684 26.82468742 -5.52336614 27.78341652 -7.23828125 28.7421875 C-8.26993408 29.3182373 -9.30158691 29.89428711 -10.36450195 30.48779297 C-12.2843677 31.58938152 -14.15829434 32.77219623 -16 34 C-20.2568084 33.86585688 -22.44960639 30.84843546 -25.25 27.9375 C-26.14203125 27.01839844 -27.0340625 26.09929687 -27.953125 25.15234375 C-28.62859375 24.44207031 -29.3040625 23.73179687 -30 23 C-28.66002034 19.89660545 -27.34960553 18.21036358 -24.62109375 16.23046875 C-23.61598755 15.49038574 -23.61598755 15.49038574 -22.59057617 14.73535156 C-21.88006104 14.22456055 -21.1695459 13.71376953 -20.4375 13.1875 C-18.98377433 12.12451891 -17.53064572 11.06072078 -16.078125 9.99609375 C-15.37623047 9.4841748 -14.67433594 8.97225586 -13.95117188 8.44482422 C-10.78585915 6.10094025 -7.73661703 3.61567614 -4.69921875 1.109375 C-3 0 -3 0 0 0 Z " fill="#0473BA" transform="translate(127,351)"/>
<path d="M0 0 C2.46424613 1.21711381 4.64546792 2.40662583 6.9375 3.875 C7.52595703 4.22691406 8.11441406 4.57882813 8.72070312 4.94140625 C10.40234375 5.9921875 10.40234375 5.9921875 13 8 C13 8.99 13 9.98 13 11 C12.17757812 11.40089844 11.35515625 11.80179688 10.5078125 12.21484375 C3.46782155 15.79987378 -2.17805475 19.49654269 -7.87890625 25.08203125 C-9.85971639 26.87315055 -11.56111647 27.9547642 -14 29 C-19.33333333 23.66666667 -24.66666667 18.33333333 -30 13 C-29.01 12.40832031 -28.02 11.81664062 -27 11.20703125 C-26.36384766 10.82595215 -25.72769531 10.44487305 -25.07226562 10.05224609 C-23.68691776 9.22345292 -22.30018766 8.39696596 -20.91210938 7.57275391 C-17.34947495 5.44913447 -13.89855563 3.25533758 -10.5 0.875 C-6.19572173 -1.43086336 -4.69163527 -1.08534149 0 0 Z " fill="#0573BA" transform="translate(229,206)"/>
<path d="M0 0 C4.04356547 4.68150663 7.09137962 9.89416609 10.25 15.1875 C10.80429688 16.10208984 11.35859375 17.01667969 11.9296875 17.95898438 C12.45304687 18.83232422 12.97640625 19.70566406 13.515625 20.60546875 C14.23153809 21.79885864 14.23153809 21.79885864 14.96191406 23.01635742 C16 25 16 25 16 27 C12.35416552 29.12144111 8.70625918 31.23926011 5.05639648 33.35375977 C3.81526153 34.07347212 2.57469637 34.79416802 1.3347168 35.51586914 C-0.44853922 36.55354275 -2.23381997 37.58765249 -4.01953125 38.62109375 C-5.09307861 39.2442749 -6.16662598 39.86745605 -7.27270508 40.50952148 C-10 42 -10 42 -13 43 C-14.78976008 29.94138016 -14.78976008 29.94138016 -11.82226562 25.06445312 C-8.63687465 21.22949222 -4.91007981 18.07220556 -1 15 C-2.11375 15.66 -3.2275 16.32 -4.375 17 C-7.75 19 -7.75 19 -10 19 C-9.6205183 11.78984773 -5.25087946 4.82640717 0 0 Z " fill="#0873B8" transform="translate(119,216)"/>
<path d="M0 0 C4.64369612 5.62950871 6.06255378 12.87540871 7 20 C0.83113792 24.19894993 -5.43681634 28.16496809 -11.875 31.9375 C-13.13570312 32.69643555 -13.13570312 32.69643555 -14.421875 33.47070312 C-15.63230469 34.17936523 -15.63230469 34.17936523 -16.8671875 34.90234375 C-17.59019043 35.33023193 -18.31319336 35.75812012 -19.05810547 36.19897461 C-21 37 -21 37 -24 36 C-24.42849573 34.01820725 -24.72756589 32.00920153 -25 30 C-25.17317749 28.75899536 -25.17317749 28.75899536 -25.34985352 27.49291992 C-25.91856435 20.23817012 -25.91856435 20.23817012 -23.42333984 16.87475586 C-21.18866256 14.93495691 -18.89702535 13.2697956 -16.4375 11.625 C-15.63763672 11.04878906 -14.83777344 10.47257812 -14.01367188 9.87890625 C-11.69743714 8.21878046 -9.3527714 6.60773558 -7 5 C-5.63408135 4.03235806 -4.27050923 3.06138839 -2.91015625 2.0859375 C-1.94980469 1.39757812 -0.98945312 0.70921875 0 0 Z " fill="#0573BA" transform="translate(97,291)"/>
<path d="M0 0 C0.66 7.59 1.32 15.18 2 23 C4.31 23.99 6.62 24.98 9 26 C5.54784863 29.56722308 4.1901743 30.88482184 -0.875 31.375 C-9.13093743 31.3083123 -16.83354878 26.7822937 -24 23 C-23.4234559 19.59986814 -22.39002339 18.07329515 -19.875 15.75 C-17.21642881 13.22707019 -14.8289521 10.64201872 -12.5 7.8125 C-9.30691509 4.10044869 -5.21874375 0 0 0 Z " fill="#0673B9" transform="translate(207,366)"/>
<path d="M0 0 C2.03656984 -0.00957485 4.07207062 -0.04057181 6.10839844 -0.07226562 C15.49643982 -0.14569642 24.06121372 1.05982793 33.20214844 3.24023438 C33.20214844 3.90023437 33.20214844 4.56023437 33.20214844 5.24023438 C30.28978304 6.89376697 27.3715624 8.53668343 24.45214844 10.17773438 C23.62714844 10.64630859 22.80214844 11.11488281 21.95214844 11.59765625 C21.15292969 12.04560547 20.35371094 12.49355469 19.53027344 12.95507812 C18.79711914 13.36878662 18.06396484 13.78249512 17.30859375 14.20874023 C15.22027885 15.23135619 13.50633215 15.92588143 11.20214844 16.24023438 C8.8369908 15.10036388 6.72817744 13.93529649 4.51464844 12.55273438 C3.2626029 11.80352229 2.00869438 11.05741463 0.75292969 10.31445312 C0.14529785 9.95399902 -0.46233398 9.59354492 -1.08837891 9.22216797 C-6.3605765 6.19377912 -11.99764936 4.02491198 -17.79785156 2.24023438 C-17.79785156 1.91023437 -17.79785156 1.58023438 -17.79785156 1.24023438 C-11.90264383 -0.14182278 -6.02710667 0.01704981 0 0 Z " fill="#0873B8" transform="translate(175.7978515625,194.759765625)"/>
<path d="M0 0 C1.52604277 0.48386722 3.04682689 0.98456908 4.5625 1.5 C6.24568027 1.89393581 7.93324703 2.26967884 9.625 2.625 C10.9375 2.91666667 12.25 3.20833333 13.5625 3.5 C13.5625 4.16 13.5625 4.82 13.5625 5.5 C-1.9815554 14.80753469 -17.43798362 21.5913329 -35.4375 24.5 C-31.20363005 20.01158877 -26.51449497 16.31340076 -21.625 12.5625 C-20.85607422 11.96759766 -20.08714844 11.37269531 -19.29492188 10.75976562 C-17.76338551 9.57718691 -16.22754087 8.40016493 -14.68725586 7.22900391 C-13.18679803 6.07585769 -11.70294224 4.90078338 -10.23657227 3.70458984 C-9.19907837 2.87435303 -9.19907837 2.87435303 -8.140625 2.02734375 C-7.53250977 1.528396 -6.92439453 1.02944824 -6.29785156 0.51538086 C-3.91586187 -0.78471037 -2.61655954 -0.55640175 0 0 Z " fill="#FCB016" transform="translate(233.4375,397.5)"/>
<path d="M0 0 C3.3216784 2.68897775 4.40241995 6.12911276 6 10 C5.19780029 10.47421387 4.39560059 10.94842773 3.5690918 11.43701172 C0.58871767 13.19936871 -2.39121385 14.96246938 -5.37084961 16.72607422 C-6.65973574 17.48874216 -7.94879678 18.25111457 -9.23803711 19.01318359 C-11.09274797 20.10957144 -12.94682404 21.20702585 -14.80078125 22.3046875 C-16.47394409 23.2944458 -16.47394409 23.2944458 -18.1809082 24.30419922 C-20.14995257 25.48866117 -22.08807844 26.72538563 -24 28 C-24.99 28 -25.98 28 -27 28 C-27.66 26.02 -28.32 24.04 -29 22 C-9.78037223 6.93673978 -9.78037223 6.93673978 0 0 Z " fill="#0974B8" transform="translate(108,321)"/>
<path d="M0 0 C1.70084237 2.2641787 3.39595119 4.5323838 5.0859375 6.8046875 C8.94176239 11.97649358 12.78982661 17.11076639 17 22 C13.04 23.98 9.08 25.96 5 28 C3.36683159 26.11070739 1.74358315 24.21422373 0.125 22.3125 C-0.56529297 21.51682617 -0.56529297 21.51682617 -1.26953125 20.70507812 C-3.90713253 17.58965053 -5.58692791 14.80706316 -7 11 C-7.66 10.67 -8.32 10.34 -9 10 C-8.43410156 9.44570313 -7.86820312 8.89140625 -7.28515625 8.3203125 C-6.55167969 7.59585937 -5.81820312 6.87140625 -5.0625 6.125 C-4.33160156 5.40570313 -3.60070312 4.68640625 -2.84765625 3.9453125 C-0.94332001 2.12972808 -0.94332001 2.12972808 0 0 Z " fill="#F6AE1A" transform="translate(134,340)"/>
<path d="M0 0 C0.33 0 0.66 0 1 0 C1.14099121 0.53890869 1.28198242 1.07781738 1.42724609 1.63305664 C2.07569489 4.10974866 2.7253395 6.58612556 3.375 9.0625 C3.59671875 9.91005859 3.8184375 10.75761719 4.046875 11.63085938 C5.30898085 16.43799784 6.61409548 21.22704845 8 26 C6.54462432 26.83848804 5.08559627 27.67063934 3.625 28.5 C2.81289062 28.9640625 2.00078125 29.428125 1.1640625 29.90625 C-1 31 -1 31 -3 31 C-3 31.66 -3 32.32 -3 33 C-3.66 32.67 -4.32 32.34 -5 32 C-5.37243133 30.00691044 -5.69842029 28.00503386 -6 26 C-6.62643708 23.92492716 -7.29355314 21.86171534 -8 19.8125 C-8.350625 18.78769531 -8.70125 17.76289063 -9.0625 16.70703125 C-9.371875 15.81371094 -9.68125 14.92039062 -10 14 C-10.33 13.01 -10.66 12.02 -11 11 C-9.6696875 9.948125 -9.6696875 9.948125 -8.3125 8.875 C-6.01053451 6.97124181 -4.07063982 5.0056341 -2.1875 2.6875 C-1.1046875 1.3571875 -1.1046875 1.3571875 0 0 Z " fill="#F3AE1C" transform="translate(108,279)"/>
<path d="M0 0 C3.93871114 0.98467779 6.29084571 2.22544842 9.6875 4.375 C10.66074219 4.98085938 11.63398438 5.58671875 12.63671875 6.2109375 C15 8 15 8 16 11 C14.93650501 13.4892158 13.83016927 15.80733755 12.5625 18.1875 C12.22412109 18.84169922 11.88574219 19.49589844 11.53710938 20.16992188 C10.70030902 21.78459299 9.85130254 23.39292763 9 25 C6.03 25 3.06 25 0 25 C0 16.75 0 8.5 0 0 Z " fill="#0E75B5" transform="translate(263,335)"/>
<path d="M0 0 C0.33 0.66 0.66 1.32 1 2 C9.25 2.33 17.5 2.66 26 3 C20.77887725 8.22112275 12.02165543 14.46259837 4.375 14.6875 C-1.17679854 14.13127066 -6.64641059 12.52183252 -12 11 C-8.83525695 7.74483572 -5.67247209 4.67991207 -2 2 C-1.34 2 -0.68 2 0 2 C0 1.34 0 0.68 0 0 Z " fill="#FAAF17" transform="translate(158,408)"/>
<path d="M0 0 C3.020281 1.09701087 5.80251927 2.43234597 8.65234375 3.91796875 C11.61802311 5.45627625 14.35701431 6.86119227 17.52734375 7.91796875 C17.52734375 8.57796875 17.52734375 9.23796875 17.52734375 9.91796875 C12.01987813 13.40603031 7.31938295 13.30837688 1.02734375 13.16796875 C0.10308594 13.1628125 -0.82117188 13.15765625 -1.7734375 13.15234375 C-6.43971588 13.09893856 -10.88504268 12.86607556 -15.47265625 11.91796875 C-13.94412313 7.9580847 -11.52868154 6.09881561 -8.16015625 3.60546875 C-6.74283203 2.52845703 -6.74283203 2.52845703 -5.296875 1.4296875 C-2.47265625 -0.08203125 -2.47265625 -0.08203125 0 0 Z " fill="#0C74B6" transform="translate(174.47265625,398.08203125)"/>
<path d="M0 0 C1.70680947 1.62553283 3.37660195 3.29115995 5 5 C3.55576393 9.3327082 0.2656407 10.34211352 -3.5625 12.375 C-5.02971424 13.16860081 -6.49587382 13.96415477 -7.9609375 14.76171875 C-8.6631543 15.14376465 -9.36537109 15.52581055 -10.08886719 15.91943359 C-12.38183289 17.2158907 -14.5312595 18.6764666 -16.6875 20.1875 C-20 22 -20 22 -23 21.3125 C-23.66 20.879375 -24.32 20.44625 -25 20 C-23.6402177 16.82674903 -22.26411511 15.14765208 -19.48046875 13.125 C-18.78759766 12.61453125 -18.09472656 12.1040625 -17.38085938 11.578125 C-16.65705078 11.05734375 -15.93324219 10.5365625 -15.1875 10 C-13.76384217 8.95899047 -12.34065443 7.91733771 -10.91796875 6.875 C-10.2429834 6.38515625 -9.56799805 5.8953125 -8.87255859 5.390625 C-7.24848053 4.18453 -5.67546144 2.91025786 -4.11328125 1.625 C-2 0 -2 0 0 0 Z " fill="#0C74B7" transform="translate(148,376)"/>
<path d="M0 0 C4.66666667 4.66666667 9.33333333 9.33333333 14 14 C12.21118264 15.00508801 10.41885304 16.00392736 8.625 17 C7.62726563 17.556875 6.62953125 18.11375 5.6015625 18.6875 C3 20 3 20 1 20 C-0.62109375 18.390625 -0.62109375 18.390625 -2.4375 16.25 C-3.03433594 15.55390625 -3.63117188 14.8578125 -4.24609375 14.140625 C-5.89081098 12.13326411 -7.46126108 10.08929688 -9 8 C-7.8803014 6.99406757 -6.7540588 5.9954151 -5.625 5 C-4.68527344 4.1646875 -4.68527344 4.1646875 -3.7265625 3.3125 C-2 2 -2 2 0 2 C0 1.34 0 0.68 0 0 Z " fill="#F9AF18" transform="translate(96,372)"/>
<path d="M0 0 C0.13277344 1.13179688 0.26554687 2.26359375 0.40234375 3.4296875 C0.5805342 4.91148179 0.75893029 6.39325136 0.9375 7.875 C1.06801758 8.99455078 1.06801758 8.99455078 1.20117188 10.13671875 C1.63326063 14.1953231 1.63326063 14.1953231 3 18 C1.40233897 18.86627399 -0.20339944 19.71766465 -1.8125 20.5625 C-2.70582031 21.03816406 -3.59914063 21.51382812 -4.51953125 22.00390625 C-7 23 -7 23 -10 22 C-10.33820166 20.4176994 -10.67035939 18.83410625 -11 17.25 C-11.2784375 15.92742187 -11.2784375 15.92742187 -11.5625 14.578125 C-12 12 -12 12 -12 8 C-9.62890625 5.859375 -9.62890625 5.859375 -6.5625 3.75 C-5.55316406 3.04359375 -4.54382813 2.3371875 -3.50390625 1.609375 C-1 0 -1 0 0 0 Z " fill="#F7AF19" transform="translate(72,311)"/>
<path d="M0 0 C0 5.61 0 11.22 0 17 C-6.72813671 15.90667779 -12.70824926 14.61167012 -19 12 C-19 11.34 -19 10.68 -19 10 C-17.47119141 8.85498047 -17.47119141 8.85498047 -15.3515625 7.6171875 C-14.59359375 7.17246094 -13.835625 6.72773438 -13.0546875 6.26953125 C-11.85199219 5.57923828 -11.85199219 5.57923828 -10.625 4.875 C-9.43390625 4.17310547 -9.43390625 4.17310547 -8.21875 3.45703125 C-2.2722531 0 -2.2722531 0 0 0 Z " fill="#0F75B5" transform="translate(251,340)"/>
<path d="M0 0 C0.602749 3.16839768 0.78297262 5.85201222 0 9 C-2.76870843 11.75732394 -6.0211947 13.33794289 -9.5 15.0625 C-10.40621094 15.54654297 -11.31242187 16.03058594 -12.24609375 16.52929688 C-14.48294325 17.71835898 -16.73166782 18.87250174 -19 20 C-20 17 -20 17 -19.4296875 14.6015625 C-17.55585451 11.19180082 -15.28496657 9.62328917 -12.125 7.375 C-11.07570313 6.61960937 -10.02640625 5.86421875 -8.9453125 5.0859375 C-7.48738281 4.05339844 -7.48738281 4.05339844 -6 3 C-5.25492188 2.41476562 -4.50984375 1.82953125 -3.7421875 1.2265625 C-2 0 -2 0 0 0 Z " fill="#1476B3" transform="translate(94,258)"/>
<path d="M0 0 C0.99 0.99 1.98 1.98 3 3 C2.93315671 6.74322434 2.8562281 9.08261275 0.25 11.875 C-2 13 -2 13 -7 14 C-4.69 9.38 -2.38 4.76 0 0 Z " fill="#F1AE1D" transform="translate(279,345)"/>
<path d="M0 0 C1.53876951 3.07753902 0.6964617 5.52912322 -0.0625 8.796875 C-1.16126288 11.37896777 -2.10720541 12.2092632 -4.5 13.625 C-5.655 14.07875 -6.81 14.5325 -8 15 C-8.66 14.67 -9.32 14.34 -10 14 C-6.7 9.38 -3.4 4.76 0 0 Z " fill="#1D79AF" transform="translate(95,234)"/>
</svg>
